<svg width="17" height="17" viewBox="0 0 17 17" fill="none" xmlns="http://www.w3.org/2000/svg">
<path d="M4.39127 7.6057V9.16054H12.1655V7.6057H4.39127ZM8.27838 0.608887C3.98701 0.608887 0.50415 4.09174 0.50415 8.38312C0.50415 12.6745 3.98701 16.1574 8.27838 16.1574C12.5698 16.1574 16.0526 12.6745 16.0526 8.38312C16.0526 4.09174 12.5698 0.608887 8.27838 0.608887ZM8.27838 14.6025C4.84995 14.6025 2.059 11.8116 2.059 8.38312C2.059 4.95468 4.84995 2.16373 8.27838 2.16373C11.7068 2.16373 14.4978 4.95468 14.4978 8.38312C14.4978 11.8116 11.7068 14.6025 8.27838 14.6025Z" fill="#41456C"/>
</svg>
