<svg width="17" height="17" viewBox="0 0 17 17" fill="none" xmlns="http://www.w3.org/2000/svg">
<path d="M9.05581 4.71866H7.50096V7.82835H4.39127V9.3832H7.50096V12.4929H9.05581V9.3832H12.1655V7.82835H9.05581V4.71866ZM8.27838 0.831543C3.98701 0.831543 0.50415 4.3144 0.50415 8.60578C0.50415 12.8972 3.98701 16.38 8.27838 16.38C12.5698 16.38 16.0526 12.8972 16.0526 8.60578C16.0526 4.3144 12.5698 0.831543 8.27838 0.831543ZM8.27838 14.8252C4.84995 14.8252 2.059 12.0342 2.059 8.60578C2.059 5.17734 4.84995 2.38639 8.27838 2.38639C11.7068 2.38639 14.4978 5.17734 14.4978 8.60578C14.4978 12.0342 11.7068 14.8252 8.27838 14.8252Z" fill="#41456C"/>
</svg>
