<svg width="26" height="26" viewBox="0 0 26 26" fill="none" xmlns="http://www.w3.org/2000/svg">
<g clip-path="url(#clip0_394_3332)">
<path d="M21.9093 4.51232C20.3241 3.78499 18.6243 3.24912 16.847 2.94221C16.8146 2.93628 16.7823 2.95108 16.7656 2.98069C16.547 3.36951 16.3049 3.87676 16.1353 4.27546C14.2237 3.98928 12.3219 3.98928 10.4495 4.27546C10.2799 3.8679 10.029 3.36951 9.8094 2.98069C9.79272 2.95207 9.76039 2.93727 9.72802 2.94221C7.95172 3.24814 6.25188 3.78401 4.66575 4.51232C4.65202 4.51824 4.64025 4.52812 4.63244 4.54094C1.4082 9.35788 0.524952 14.0564 0.958246 18.6967C0.960206 18.7194 0.97295 18.7411 0.990596 18.7549C3.11785 20.3171 5.17846 21.2655 7.20081 21.8942C7.23318 21.904 7.26747 21.8922 7.28807 21.8655C7.76645 21.2122 8.19289 20.5234 8.55852 19.799C8.5801 19.7566 8.5595 19.7063 8.5154 19.6895C7.839 19.4329 7.19492 19.1201 6.57537 18.7648C6.52637 18.7362 6.52244 18.6661 6.56753 18.6325C6.6979 18.5348 6.82831 18.4332 6.95281 18.3305C6.97533 18.3118 7.00672 18.3078 7.0332 18.3197C11.1034 20.178 15.5099 20.178 19.532 18.3197C19.5585 18.3069 19.5899 18.3108 19.6134 18.3296C19.7379 18.4322 19.8683 18.5348 19.9997 18.6325C20.0447 18.6661 20.0418 18.7362 19.9928 18.7648C19.3732 19.127 18.7292 19.4329 18.0518 19.6885C18.0077 19.7053 17.9881 19.7566 18.0096 19.799C18.3831 20.5224 18.8096 21.2112 19.2791 21.8646C19.2987 21.8922 19.334 21.904 19.3664 21.8942C21.3985 21.2655 23.4591 20.3171 25.5864 18.7549C25.605 18.7411 25.6168 18.7204 25.6187 18.6977C26.1373 13.333 24.7502 8.673 21.9416 4.54192C21.9347 4.52812 21.923 4.51824 21.9093 4.51232ZM9.16634 15.8712C7.94093 15.8712 6.93123 14.7462 6.93123 13.3646C6.93123 11.983 7.92135 10.8579 9.16634 10.8579C10.4211 10.8579 11.421 11.9928 11.4014 13.3646C11.4014 14.7462 10.4113 15.8712 9.16634 15.8712ZM17.4303 15.8712C16.2049 15.8712 15.1952 14.7462 15.1952 13.3646C15.1952 11.983 16.1853 10.8579 17.4303 10.8579C18.6851 10.8579 19.685 11.9928 19.6654 13.3646C19.6654 14.7462 18.6851 15.8712 17.4303 15.8712Z" fill="#FFFFFF"/>
</g>
<defs>
<clipPath id="clip0_394_3332">
<rect width="24.8704" height="24.8704" fill="white" transform="translate(0.855469 0.206055)"/>
</clipPath>
</defs>
</svg>
