<svg width="25" height="25" viewBox="0 0 25 25" fill="none" xmlns="http://www.w3.org/2000/svg">
<path d="M8.42098 21.4382C16.7208 21.4382 21.2618 14.5602 21.2618 8.59738C21.2618 8.40402 21.2575 8.20636 21.2489 8.013C22.1322 7.37418 22.8945 6.5829 23.5 5.67636C22.6773 6.04239 21.8038 6.28144 20.9094 6.38535C21.8512 5.82084 22.5563 4.93402 22.8941 3.88929C22.0082 4.41435 21.0393 4.78473 20.029 4.98456C19.3483 4.26127 18.4482 3.78236 17.468 3.62188C16.4879 3.46141 15.4821 3.6283 14.6063 4.09676C13.7304 4.56522 13.0333 5.30915 12.6227 6.21354C12.2121 7.11793 12.1108 8.1324 12.3346 9.10011C10.5406 9.01009 8.78561 8.54407 7.18332 7.73226C5.58102 6.92046 4.16722 5.78099 3.03355 4.38773C2.45737 5.38114 2.28105 6.55668 2.54044 7.67542C2.79984 8.79416 3.47547 9.77216 4.43004 10.4107C3.71341 10.3879 3.01248 10.195 2.38516 9.84777V9.90363C2.38451 10.9461 2.74492 11.9567 3.40512 12.7635C4.06531 13.5704 4.98455 14.1237 6.00656 14.3294C5.34272 14.511 4.64598 14.5375 3.97027 14.4068C4.25867 15.3033 4.81978 16.0875 5.57529 16.6498C6.3308 17.2121 7.24303 17.5246 8.18465 17.5435C6.58606 18.7992 4.61133 19.4803 2.57852 19.4771C2.21801 19.4765 1.85787 19.4544 1.5 19.4109C3.56512 20.7358 5.9674 21.4394 8.42098 21.4382Z" fill="#080D36"/>
</svg>
