<svg width="25" height="26" viewBox="0 0 25 26" fill="none" xmlns="http://www.w3.org/2000/svg">
<path d="M12.4352 2.45073C15.7577 2.45073 16.1512 2.4653 17.4578 2.52359C18.6722 2.57702 19.328 2.78104 19.7651 2.95105C20.3432 3.1745 20.7609 3.44652 21.1932 3.87883C21.6304 4.31601 21.8976 4.72889 22.121 5.30694C22.291 5.74411 22.4951 6.40473 22.5485 7.61424C22.6068 8.92577 22.6213 9.31923 22.6213 12.6369C22.6213 15.9594 22.6068 16.3529 22.5485 17.6595C22.4951 18.8739 22.291 19.5297 22.121 19.9669C21.8976 20.5449 21.6256 20.9626 21.1932 21.395C20.7561 21.8321 20.3432 22.0993 19.7651 22.3227C19.328 22.4927 18.6673 22.6968 17.4578 22.7502C16.1463 22.8085 15.7529 22.8231 12.4352 22.8231C9.11266 22.8231 8.7192 22.8085 7.41253 22.7502C6.19816 22.6968 5.5424 22.4927 5.10523 22.3227C4.52718 22.0993 4.10944 21.8273 3.67712 21.395C3.23995 20.9578 2.97279 20.5449 2.74934 19.9669C2.57933 19.5297 2.37531 18.8691 2.32188 17.6595C2.26359 16.348 2.24902 15.9546 2.24902 12.6369C2.24902 9.31437 2.26359 8.92091 2.32188 7.61424C2.37531 6.39987 2.57933 5.74411 2.74934 5.30694C2.97279 4.72889 3.24481 4.31115 3.67712 3.87883C4.1143 3.44166 4.52718 3.1745 5.10523 2.95105C5.5424 2.78104 6.20302 2.57702 7.41253 2.52359C8.7192 2.4653 9.11266 2.45073 12.4352 2.45073ZM12.4352 0.211426C9.05923 0.211426 8.63662 0.225998 7.31053 0.284288C5.98929 0.342578 5.08094 0.556308 4.29402 0.86233C3.47311 1.18292 2.77849 1.60553 2.08872 2.30015C1.3941 2.98991 0.971499 3.68453 0.650904 4.50059C0.344882 5.29236 0.131152 6.19586 0.0728624 7.51709C0.0145725 8.84805 0 9.27065 0 12.6466C0 16.0226 0.0145725 16.4452 0.0728624 17.7713C0.131152 19.0925 0.344882 20.0009 0.650904 20.7878C0.971499 21.6087 1.3941 22.3033 2.08872 22.9931C2.77849 23.6828 3.47311 24.1103 4.28917 24.426C5.08094 24.732 5.98443 24.9458 7.30567 25.0041C8.63177 25.0624 9.05437 25.0769 12.4303 25.0769C15.8063 25.0769 16.2289 25.0624 17.555 25.0041C18.8762 24.9458 19.7846 24.732 20.5715 24.426C21.3875 24.1103 22.0822 23.6828 22.7719 22.9931C23.4617 22.3033 23.8892 21.6087 24.2049 20.7926C24.5109 20.0009 24.7246 19.0974 24.7829 17.7761C24.8412 16.45 24.8558 16.0274 24.8558 12.6515C24.8558 9.27551 24.8412 8.85291 24.7829 7.52681C24.7246 6.20557 24.5109 5.29722 24.2049 4.51031C23.8989 3.68453 23.4763 2.98991 22.7816 2.30015C22.0919 1.61038 21.3973 1.18292 20.5812 0.867187C19.7894 0.561165 18.8859 0.347436 17.5647 0.289146C16.2337 0.225998 15.8111 0.211426 12.4352 0.211426Z" fill="#080D36"/>
<path d="M12.4355 6.25879C8.90892 6.25879 6.04785 9.11985 6.04785 12.6464C6.04785 16.1729 8.90892 19.034 12.4355 19.034C15.962 19.034 18.8231 16.1729 18.8231 12.6464C18.8231 9.11985 15.962 6.25879 12.4355 6.25879ZM12.4355 16.7898C10.1476 16.7898 8.29201 14.9343 8.29201 12.6464C8.29201 10.3585 10.1476 8.50295 12.4355 8.50295C14.7233 8.50295 16.5789 10.3585 16.5789 12.6464C16.5789 14.9343 14.7233 16.7898 12.4355 16.7898Z" fill="#080D36"/>
<path d="M20.5665 6.00639C20.5665 6.83216 19.8962 7.49764 19.0752 7.49764C18.2495 7.49764 17.584 6.82731 17.584 6.00639C17.584 5.18061 18.2543 4.51514 19.0752 4.51514C19.8962 4.51514 20.5665 5.18547 20.5665 6.00639Z" fill="#080D36"/>
</svg>
