<svg width="22" height="154" viewBox="0 0 22 154" fill="none" xmlns="http://www.w3.org/2000/svg">
<path fill-rule="evenodd" clip-rule="evenodd" d="M3.94885 8.57997V17.1599H10.5677H17.1865V14.0548V10.9497H14.1631H11.1397V5.47484V0H7.54427H3.94885V8.57997Z" fill="#080D36"/>
<path d="M2.32236 30.9596C2.20927 30.4222 2.14014 28.019 2.14014 24.6267V19.1599H5.73555H9.33097L9.33489 23.7767C9.33881 28.5382 9.43573 29.543 9.92519 29.9009C10.3424 30.206 10.9187 30.1562 11.2921 29.7827C11.6051 29.4698 11.619 29.238 11.619 24.3079V19.1599H15.307H18.9951L18.9396 25.0842C18.8855 30.8609 18.8745 31.0328 18.4976 31.989C17.2729 35.0976 14.4546 36.8077 10.5567 36.8077C6.24855 36.8077 3.07887 34.5564 2.32236 30.9596Z" fill="#080D36"/>
<path d="M1.82422 55.9676V47.3876V38.8076H4.89846H7.97271L10.2507 42.0674L12.5288 45.3271L12.573 42.0674L12.6172 38.8076H15.9642H19.311V47.3876V55.9676L16.2467 55.9622L13.1825 55.9568L10.8945 52.6684L8.60648 49.3799L8.56219 52.6738L8.51807 55.9676H5.17106H1.82422Z" fill="#080D36"/>
<path d="M2.55738 64.2763C3.45117 61.264 5.84621 59.0904 9.1718 58.2738C10.7003 57.8984 13.874 57.8609 15.3169 58.2012C16.3809 58.4521 17.9489 59.1876 18.5838 59.734C18.9368 60.0376 18.9515 60.1555 18.9515 62.6826V65.3147L18.1183 64.7416C16.6305 63.7182 14.5791 63.3871 13.0558 63.9244C12.1429 64.2466 11.7862 64.5742 11.3943 65.4504C10.7499 66.8911 11.5324 68.5408 13.1539 69.1602C14.2696 69.5862 16.6124 69.4342 17.8732 68.8538C18.4039 68.6096 18.8778 68.4498 18.9267 68.4986C18.9755 68.5475 18.9242 69.2288 18.8126 70.0126C18.4478 72.5752 17.2808 74.374 15.435 75.2191C12.7303 76.4572 8.71796 76.343 6.29858 74.9589C5.09918 74.2727 3.6749 72.72 3.08133 71.4514C2.12054 69.3981 1.90678 66.4698 2.55738 64.2763Z" fill="#080D36"/>
<path d="M1.74219 95.2374V86.6574V78.0774H5.33368H8.92534L8.96996 80.8965L9.01473 83.7157H10.5673H12.1199L12.1646 80.8965L12.2093 78.0774H15.8009H19.3924V86.6574V95.2374H15.797H12.2016V92.4591V89.6808H10.5673H8.93302V92.4591V95.2374H5.3376H1.74219Z" fill="#080D36"/>
<path fill-rule="evenodd" clip-rule="evenodd" d="M2.24463 114.397V105.817V97.2373H8.0241C11.2026 97.2373 14.1917 97.311 14.6661 97.4009C16.6279 97.773 17.942 98.8897 18.2684 100.462C18.7046 102.563 17.5049 104.437 15.3529 105.016C14.9296 105.13 14.6988 105.228 14.8397 105.234C16.3081 105.297 18.1723 106.618 18.6837 107.957C19.0333 108.873 18.9287 110.469 18.4596 111.379C17.7133 112.825 16.0306 113.895 13.976 114.228C13.4112 114.32 10.5407 114.395 7.59689 114.396L2.24463 114.397ZM10.958 100.859C11.4817 101.138 11.713 101.506 11.713 102.058C11.713 102.906 11.0518 103.448 10.0182 103.448H9.43546V102.058V100.669H10.0182C10.3387 100.669 10.7615 100.755 10.958 100.859ZM11.7182 108.726C11.7125 108.048 11.5072 107.689 10.958 107.396C10.7615 107.292 10.3387 107.206 10.0182 107.206H9.43546V108.677V110.148H10.147C11.1173 110.148 11.7256 109.597 11.7182 108.726Z" fill="#080D36"/>
<path fill-rule="evenodd" clip-rule="evenodd" d="M7.94802 116.546C4.15747 117.3 1.5034 119.803 0.76062 123.326C-0.318986 128.445 2.33868 132.793 7.37766 134.15C8.85227 134.547 12.434 134.536 13.9148 134.13C18.1466 132.97 20.6054 129.752 20.6129 125.362C20.6174 122.759 19.858 120.824 18.1758 119.154C16.1825 117.175 13.9573 116.367 10.5792 116.398C9.49259 116.408 8.30838 116.475 7.94802 116.546ZM12.9919 125.373C12.9813 124.211 12.7337 123.567 12.0522 122.931C11.4521 122.37 10.117 122.279 9.37018 122.748C8.63851 123.207 8.2028 124.217 8.19839 125.466C8.19169 127.345 9.27114 128.577 10.7874 128.42C12.2055 128.274 13.0082 127.164 12.9919 125.373Z" fill="#080D36"/>
<path d="M6.03472 144.908C6.03472 144.788 2.59424 139.839 0.687853 137.217L0.123535 136.441H4.2143H8.30523L9.43828 138.33L10.5712 140.22L11.7094 138.371L12.8477 136.523L16.8772 136.479C19.0934 136.455 20.9067 136.481 20.9067 136.537C20.9067 136.592 19.5893 138.501 17.979 140.779L15.0514 144.92L18.0315 149.22L21.0118 153.519L17.1627 153.563C15.0458 153.587 13.235 153.577 13.1386 153.54C13.0424 153.503 12.4525 152.659 11.8281 151.664C11.2035 150.669 10.6557 149.852 10.6107 149.849C10.5658 149.847 9.97939 150.689 9.3077 151.723L8.0864 153.601H4.10791H0.129251L1.50989 151.599C2.26901 150.498 3.59785 148.574 4.46255 147.324C5.32724 146.073 6.03472 144.986 6.03472 144.908Z" fill="#080D36"/>
</svg>
