<svg width="273" height="48" viewBox="0 0 273 48" fill="none" xmlns="http://www.w3.org/2000/svg">
<path d="M1.33714 22H17.264V14.5714H10.1029V1.2H1.33714V22ZM28.8776 22.5943C35.3256 22.5943 39.0102 18.8503 39.0102 13.3531V1.2H30.2445V12.848C30.2445 13.68 29.8285 14.512 28.8776 14.512C27.8971 14.512 27.4811 13.68 27.4811 12.848V1.2H18.7154V13.3531C18.7154 18.8503 22.3999 22.5943 28.8776 22.5943ZM54.5714 1.2V4.82514V9.25257L48.9257 1.2H41.5269V22H49.6983V18.7017V13.9474L55.344 22H62.7429V1.2H54.5714ZM75.2143 22.5943C82.108 22.5943 84.9903 19.3554 84.9903 13.1749C83.6234 14.1554 82.0783 14.6011 79.9389 14.6011C77.7103 14.6011 75.5411 13.2937 75.5411 11.0057C75.5411 8.53943 77.5914 7.55886 79.7903 7.55886C81.9297 7.55886 83.7423 8.30171 84.9309 9.63886V3.19086C83.3263 1.55657 80.5331 0.605715 77.2943 0.605715C69.5091 0.605715 64.7251 4.88457 64.7251 11.8377C64.7251 18.1371 68.8257 22.5943 75.2143 22.5943ZM99.7715 22H108.537V1.2H99.7715V8.12343H95.9087V1.2H87.1429V22H95.9087V15.2549H99.7715V22ZM111.199 22H122.728C128.819 22 131.404 19.3554 131.404 15.8194C131.404 13.5017 129.443 10.9166 125.699 10.9166C128.79 10.6789 130.721 8.80686 130.721 6.22172C130.721 3.04229 128.374 1.2 123.322 1.2H111.199V22ZM119.964 16.9486V13.2937H120.707C121.955 13.2937 122.787 14.0069 122.787 15.136C122.787 16.2354 121.955 16.9486 120.707 16.9486H119.964ZM119.964 8.83657V5.36H120.707C121.926 5.36 122.728 6.01371 122.728 7.08343C122.728 8.18286 121.926 8.83657 120.707 8.83657H119.964ZM144.519 22.5943C151.799 22.5943 156.672 18.3451 156.672 11.6C156.672 4.85486 151.799 0.605715 144.519 0.605715C137.239 0.605715 132.366 4.85486 132.366 11.6C132.366 18.3451 137.239 22.5943 144.519 22.5943ZM141.547 11.6C141.547 9.46057 142.647 7.91543 144.519 7.91543C146.391 7.91543 147.49 9.46057 147.49 11.6C147.49 13.7394 146.391 15.2846 144.519 15.2846C142.647 15.2846 141.547 13.7394 141.547 11.6ZM155.243 22H164.87C165.791 20.4846 166.118 19.9794 166.95 18.7314C167.307 18.1966 167.574 17.7806 167.871 17.3349L168.763 18.7314C169.535 19.9497 169.951 20.5737 170.872 22H180.5L173.25 11.5109L180.53 1.2H170.694C170.219 2.00229 169.535 3.10171 168.882 4.17143L167.842 5.83543C167.426 5.152 167.099 4.61714 166.891 4.26057L165.048 1.2H155.213L162.493 11.5109L155.243 22ZM1.33714 46H17.6206V40.0571H10.1029V38.1257H15.9566V32.9257H10.1029V31.1429H17.6206V25.2H1.33714V46ZM32.8951 25.2V28.8251V33.2526L27.2494 25.2H19.8505V46H28.022V42.7017V37.9474L33.6677 46H41.0665V25.2H32.8951ZM48.5459 32.3314V46H57.3117V32.3314H62.8979V25.2H42.9894V32.3314H48.5459ZM64.8282 46H81.1116V40.0571H73.5939V38.1257H79.4476V32.9257H73.5939V31.1429H81.1116V25.2H64.8282V46ZM83.3416 46H92.1073V39.7897L94.9005 46H104.558L99.9816 37.1749C101.556 36.016 102.507 34.2629 102.507 32.2126C102.507 28.0526 98.9119 25.2 94.3062 25.2H83.3416V46ZM92.1073 35.0651V30.7863H92.6125C93.6822 30.7863 94.9005 31.3806 94.9005 32.9554C94.9005 34.4709 93.6822 35.0651 92.6125 35.0651H92.1073ZM109.512 32.3314V46H118.278V32.3314H123.864V25.2H103.956V32.3314H109.512ZM121.465 46H130.469L131.122 43.4446H136.263L136.917 46H145.861L138.254 25.2H129.132L121.465 46ZM132.43 38.3337L133.678 33.4903L134.926 38.3337H132.43ZM147.036 46H155.802V25.2H147.036V46ZM171.513 25.2V28.8251V33.2526L165.868 25.2H158.469V46H166.64V42.7017V37.9474L172.286 46H179.685V25.2H171.513ZM182.351 25.2V46H190.641V42.6126V38.3634L195.098 46L199.555 38.3634V42.4937V46H207.845V25.2H200.001L195.098 33.104L190.165 25.2H182.351ZM210.527 46H226.81V40.0571H219.293V38.1257H225.146V32.9257H219.293V31.1429H226.81V25.2H210.527V46ZM242.085 25.2V28.8251V33.2526L236.439 25.2H229.04V46H237.212V42.7017V37.9474L242.857 46H250.256V25.2H242.085ZM257.736 32.3314V46H266.501V32.3314H272.088V25.2H252.179V32.3314H257.736Z" fill="#080D36"/>
</svg>
