<svg width="243" height="48" viewBox="0 0 243 48" fill="none" xmlns="http://www.w3.org/2000/svg">
<path fill-rule="evenodd" clip-rule="evenodd" d="M64.3083 0.492036C60.7148 1.37448 58.1268 3.72318 57.161 6.97816C56.458 9.34841 56.689 12.5126 57.7272 14.7313C58.3686 16.1021 59.9076 17.7799 61.2036 18.5214C63.8179 20.017 68.1535 20.1404 71.0761 18.8025C73.0706 17.8894 74.3316 15.9456 74.7258 13.1766C74.8464 12.3297 74.9018 11.5934 74.849 11.5406C74.7962 11.4878 74.2841 11.6606 73.7107 11.9244C72.3483 12.5516 69.8168 12.7159 68.6112 12.2555C66.859 11.5862 66.0135 9.80366 66.7098 8.24681C67.1333 7.30009 67.5188 6.94602 68.5052 6.59795C70.1513 6.01731 72.3679 6.37509 73.9756 7.48092L74.8759 8.10024V5.25601C74.8759 2.52534 74.86 2.39802 74.4785 2.0699C73.7925 1.47955 72.0982 0.6847 70.9484 0.413628C69.3893 0.0459596 65.96 0.0863997 64.3083 0.492036ZM125.292 0.327097C121.196 1.14155 118.328 3.84679 117.525 7.65293C116.359 13.1849 119.23 17.8825 124.675 19.3487C126.269 19.7779 130.139 19.7664 131.739 19.3277C136.312 18.0744 138.969 14.5966 138.977 9.85329C138.982 7.04032 138.161 4.94998 136.344 3.14501C134.19 1.00628 131.785 0.133903 128.135 0.167103C126.961 0.177699 125.681 0.249749 125.292 0.327097ZM0 9.94865V19.2198H7.15206H14.3041V15.8645V12.5093H11.0371H7.77014V6.59336V0.67746H3.88507H0V9.94865ZM15.5403 6.58471C15.5403 10.2503 15.615 12.8471 15.7372 13.4277C16.5546 17.3144 19.9797 19.747 24.6349 19.747C28.8468 19.747 31.8922 17.8991 33.2156 14.5401C33.6228 13.5068 33.6346 13.3211 33.6931 7.07899L33.7531 0.67746H29.7679H25.7827V6.24017C25.7827 11.5675 25.7677 11.8179 25.4295 12.1561C25.026 12.5596 24.4034 12.6135 23.9525 12.2838C23.4236 11.897 23.3189 10.8113 23.3147 5.66624L23.3104 0.67746H19.4253H15.5403V6.58471ZM36.0252 9.94865V19.2198H39.6417H43.2583L43.306 15.6608L43.3538 12.1015L45.8262 15.6549L48.2985 19.2082L51.6096 19.214L54.9208 19.2198V9.94865V0.67746H51.3043H47.6876L47.64 4.1998L47.5921 7.72215L45.1306 4.1998L42.669 0.67746H39.3471H36.0252V9.94865ZM76.8184 9.94865V19.2198H80.7035H84.5886V16.2177V13.2156H86.3545H88.1204V16.2177V19.2198H92.0055H95.8906V9.94865V0.67746H92.0097H88.1287L88.0805 3.72371L88.0321 6.76996H86.3545H84.6769L84.6285 3.72371L84.5803 0.67746H80.6992H76.8184V9.94865ZM98.3629 9.94865V19.2198L104.146 19.2184C107.327 19.2177 110.429 19.1361 111.039 19.0371C113.259 18.6768 115.078 17.5212 115.884 15.958C116.391 14.9752 116.504 13.2503 116.126 12.2611C115.574 10.814 113.559 9.3869 111.973 9.31874C111.82 9.31203 112.07 9.20607 112.527 9.08298C114.853 8.45696 116.149 6.43231 115.678 4.16201C115.325 2.463 113.905 1.25634 111.785 0.85423C111.272 0.757104 108.043 0.67746 104.608 0.67746H98.3629V9.94865ZM138.323 1.51628C140.383 4.34938 144.101 9.69665 144.101 9.82627C144.101 9.91086 143.336 11.0856 142.402 12.4367C141.468 13.7878 140.032 15.8667 139.211 17.0566L137.72 19.2198H142.019H146.318L147.637 17.1901C148.363 16.0736 148.997 15.1628 149.045 15.1659C149.094 15.1689 149.686 16.0512 150.361 17.1263C151.036 18.2016 151.673 19.1139 151.777 19.1538C151.881 19.1937 153.838 19.205 156.125 19.179L160.284 19.1315L157.064 14.4855L153.844 9.83951L157.007 5.3648C158.747 2.90378 160.171 0.840986 160.171 0.780767C160.171 0.720549 158.212 0.69247 155.817 0.718606L151.463 0.765757L150.233 2.76304L149.003 4.76031L147.779 2.71889L146.554 0.67746H142.134H137.713L138.323 1.51628ZM107.778 4.59131C108.344 4.89294 108.594 5.28974 108.594 5.88698C108.594 6.80245 107.88 7.38803 106.763 7.38803H106.133V5.88698V4.38594H106.763C107.109 4.38594 107.566 4.47847 107.778 4.59131ZM129.727 7.2261C130.463 7.91411 130.73 8.60901 130.742 9.86477C130.76 11.8001 129.892 12.9993 128.36 13.1575C126.721 13.3267 125.555 11.9956 125.562 9.96507C125.567 8.61642 126.038 7.52489 126.828 7.02867C127.635 6.52219 129.078 6.62038 129.727 7.2261ZM107.778 11.6551C108.372 11.9714 108.594 12.3592 108.6 13.0917C108.608 14.0334 107.95 14.6284 106.902 14.6284H106.133V13.039V11.4497H106.763C107.109 11.4497 107.566 11.5422 107.778 11.6551Z" fill="#080D36"/>
<path fill-rule="evenodd" clip-rule="evenodd" d="M0 38.2723V47.5352H7.32215H14.6443V44.8925V42.2497L11.2479 42.2019L7.85146 42.1539V41.3599V40.5659L10.4539 40.5171L13.0564 40.4684V38.184V35.8997L10.4539 35.851L7.85146 35.8021L7.79747 35.0562L7.74331 34.3102L11.1498 34.2622L14.5561 34.2142L14.605 31.6117L14.6537 29.0093H7.32692H0V38.2723ZM16.5851 38.2723V47.5352H20.1984H23.8118L23.8595 43.9793L23.9073 40.4232L26.3774 43.9735L28.8475 47.5236L32.1557 47.5294L35.4639 47.5352V38.2723V29.0093H31.8507H28.2372L28.1896 32.5285L28.1418 36.0477L25.6824 32.5285L23.223 29.0093H19.9041H16.5851V38.2723ZM37.2283 32.1852V35.361H39.6984H42.1685V41.4481V47.5352H46.1384H50.1082V41.4481V35.361H52.5783H55.0485V32.1852V29.0093H46.1384H37.2283V32.1852ZM56.8128 38.2723V47.5352H64.0468H71.2807V44.8887V42.2421H67.9284H64.5761V41.3599V40.4777H67.2226H69.8692V38.184V35.8904H67.2226H64.5761V35.0964V34.3024H67.9284H71.2807V31.6559V29.0093H64.0468H56.8128V38.2723ZM73.398 38.2723V47.5352H77.275H81.152L81.2007 44.8446L81.2494 42.1539L82.467 44.8446L83.6846 47.5352H87.9807C90.3435 47.5352 92.2768 47.5084 92.2768 47.4754C92.2768 47.4426 91.3718 45.6761 90.2657 43.55L88.2547 39.6841L88.9582 38.921C91.5752 36.082 90.6793 31.6899 87.111 29.8657C85.5848 29.0853 84.9038 29.0135 78.9998 29.0114L73.398 29.0093V38.2723ZM91.7475 32.1852V35.361H94.2176H96.6877V41.4481V47.5352H100.658H104.627V41.4481V35.361H107.098H109.568V32.1852V29.0093H100.658H91.7475V32.1852ZM111.251 37.1702C109.605 41.6579 108.078 45.8261 107.857 46.4325L107.456 47.5352H111.492H115.528L115.645 47.05C115.71 46.7832 115.841 46.2672 115.936 45.9032L116.109 45.2415H118.39H120.67L120.843 45.9032C120.938 46.2672 121.069 46.7832 121.134 47.05L121.251 47.5352H125.201C128.25 47.5352 129.15 47.4849 129.142 47.3147C129.136 47.1935 127.646 43.0449 125.831 38.0958L122.529 29.0975L118.386 29.0541L114.243 29.0107L111.251 37.1702ZM130.211 38.2723V47.5352H134.181H138.15V38.2723V29.0093H134.181H130.211V38.2723ZM140.444 38.2723V47.5352H144.146H147.847L147.895 43.9966L147.943 40.4581L150.406 43.9966L152.87 47.5352H156.185H159.499V38.2723V29.0093H155.882H152.265V32.4498C152.265 34.3421 152.206 35.8877 152.133 35.8847C152.06 35.8815 150.929 34.3344 149.619 32.4466L147.237 29.0142L143.841 29.0118L140.444 29.0093V38.2723ZM161.793 38.2723V47.5352H165.583H169.372L169.42 44.2643L169.468 40.9933L171.317 44.176C172.334 45.9265 173.22 47.3588 173.285 47.3588C173.35 47.3588 174.265 45.8741 175.318 44.0596L177.231 40.7604L177.279 44.1478L177.327 47.5352H181.029H184.73V38.2723V29.0093L181.157 29.0119L177.584 29.0148L175.471 32.4525C174.308 34.3434 173.316 35.8875 173.265 35.884C173.215 35.8807 172.221 34.3335 171.056 32.4458L168.939 29.0139L165.366 29.0116L161.793 29.0093V38.2723ZM187.024 38.2723V47.5352H194.346H201.668V44.8887V42.2421H198.316H194.963V41.3599V40.4777H197.522H200.08V38.184V35.8904H197.522H194.963V35.0964V34.3024H198.316H201.668V31.6559V29.0093H194.346H187.024V38.2723ZM203.609 38.2684V47.5352H207.314H211.019V43.9768V40.4184L213.503 43.9768L215.987 47.5352H219.326H222.664V38.2723V29.0093H218.963H215.261L215.213 32.4636L215.165 35.9181L212.779 32.5077L210.392 29.0975L207 29.0495L203.609 29.0017V38.2684ZM224.292 32.1411L224.34 35.2728L226.854 35.3217L229.369 35.3707V41.4529V47.5352H233.25H237.132V41.4481V35.361H239.602H242.072V32.1852V29.0093H233.158H224.244L224.292 32.1411ZM82.7236 34.201C83.6666 34.6886 83.9419 36.2164 83.2343 37.0367C82.8592 37.4714 81.6134 37.9134 81.3032 37.7218C81.2251 37.6734 81.1612 36.805 81.1612 35.7917V33.9495H81.6993C81.9952 33.9495 82.4561 34.0626 82.7236 34.201ZM118.902 38.4487C119.113 39.3221 119.328 40.1755 119.379 40.3454C119.46 40.6162 119.338 40.6542 118.381 40.6542C117.375 40.6542 117.297 40.6265 117.383 40.2993C117.434 40.1044 117.657 39.191 117.879 38.27C118.101 37.3488 118.336 36.655 118.4 36.7279C118.464 36.8009 118.69 37.5753 118.902 38.4487Z" fill="#080D36"/>
</svg>
