<svg width="21" height="151" viewBox="0 0 21 151" fill="none" xmlns="http://www.w3.org/2000/svg">
<path d="M1.2338 18.885H14.2407V12.8184H8.39246V1.89836H1.2338V18.885Z" fill="#080D36"/>
<path d="M9.51583 38.037C14.7817 38.037 17.7908 34.9794 17.7908 30.4901V20.565H10.6321V30.0776C10.6321 30.757 10.2924 31.4365 9.51583 31.4365C8.71503 31.4365 8.3753 30.757 8.3753 30.0776V20.565H1.21663V30.4901C1.21663 34.9794 4.2257 38.037 9.51583 38.037Z" fill="#080D36"/>
<path d="M11.9934 39.2317V42.1922V45.808L7.38271 39.2317H1.34031V56.2184H8.01364V53.5248V49.6421L12.6243 56.2184H18.6667V39.2317H11.9934Z" fill="#080D36"/>
<path d="M9.22513 75.3704C14.855 75.3704 17.2089 72.7253 17.2089 67.6778C16.0926 68.4786 14.8307 68.8426 13.0835 68.8426C11.2635 68.8426 9.49206 67.7749 9.49206 65.9064C9.49206 63.8922 11.1665 63.0914 12.9622 63.0914C14.7094 63.0914 16.1897 63.6981 17.1603 64.7901V59.5242C15.8499 58.1896 13.5689 57.413 10.9238 57.413C4.56593 57.413 0.658997 60.9074 0.658997 66.5858C0.658997 71.7304 4.0078 75.3704 9.22513 75.3704Z" fill="#080D36"/>
<path d="M11.5825 93.5517H18.7412V76.565H11.5825V82.2191H8.42788V76.565H1.26921V93.5517H8.42788V88.0431H11.5825V93.5517Z" fill="#080D36"/>
<path d="M1.16973 112.218H10.5852C15.5599 112.218 17.6711 110.059 17.6711 107.171C17.6711 105.278 16.0695 103.167 13.0119 103.167C15.5356 102.973 17.1129 101.444 17.1129 99.3328C17.1129 96.7362 15.1959 95.2317 11.0705 95.2317H1.16973V112.218ZM8.3284 108.093V105.108H8.93507C9.95427 105.108 10.6337 105.691 10.6337 106.613C10.6337 107.511 9.95427 108.093 8.93507 108.093H8.3284ZM8.3284 101.468V98.629H8.93507C9.93 98.629 10.5852 99.1629 10.5852 100.036C10.5852 100.934 9.93 101.468 8.93507 101.468H8.3284Z" fill="#080D36"/>
<path d="M10.4963 131.37C16.4416 131.37 20.4214 127.9 20.4214 122.392C20.4214 116.883 16.4416 113.413 10.4963 113.413C4.55097 113.413 0.571236 116.883 0.571236 122.392C0.571236 127.9 4.55097 131.37 10.4963 131.37ZM8.06964 122.392C8.06964 120.644 8.9675 119.383 10.4963 119.383C12.0251 119.383 12.923 120.644 12.923 122.392C12.923 124.139 12.0251 125.401 10.4963 125.401C8.9675 125.401 8.06964 124.139 8.06964 122.392Z" fill="#080D36"/>
<path d="M0.189131 149.552H8.05153C8.8038 148.314 9.07073 147.902 9.7502 146.882C10.0414 146.446 10.2598 146.106 10.5025 145.742L11.2305 146.882C11.8614 147.877 12.2011 148.387 12.9534 149.552H20.8158L14.8947 140.986L20.8401 132.565H12.8078C12.4195 133.22 11.8614 134.118 11.3275 134.992L10.4782 136.351C10.1385 135.792 9.87153 135.356 9.70166 135.064L8.19713 132.565H0.164864L6.1102 140.986L0.189131 149.552Z" fill="#080D36"/>
</svg>
