<svg width="60" height="49" viewBox="0 0 60 49" fill="none" xmlns="http://www.w3.org/2000/svg">
<path fill-rule="evenodd" clip-rule="evenodd" d="M33.9999 1.07014C22.1149 1.64133 12.0999 2.10452 11.6367 2.10452H11.1799V4.48424V6.86396L5.60559 6.753L0.03125 6.64203V23.2947V39.9475L2.75501 42.8442C4.25311 44.4376 5.61934 45.8667 5.7911 46.0204C6.03567 46.239 6.70146 46.3257 8.85942 46.42C13.0128 46.6017 41.1915 47.8846 45.6711 48.0961C57.2311 48.6417 59.8739 48.7534 59.9296 48.6983C60.0634 48.5666 57.8427 17.1441 57.6709 16.7372C57.5697 16.4976 56.3375 14.3649 54.9324 11.9978L52.3778 7.69384L50.3745 7.66318C49.2727 7.64628 46.8426 7.5841 44.9743 7.52504L41.5775 7.41756L41.5301 4.06425L41.4829 0.710938L41.0075 0.733584C40.7462 0.745952 37.5927 0.897506 33.9999 1.07014ZM38.3548 5.60903V7.37158L30.4724 7.24249C26.1369 7.17142 20.6694 7.06412 18.322 7.00419L14.0542 6.89497L14.0039 5.37073L13.9535 3.8465H26.1542H38.3548V5.60903ZM48.2841 24.2076V36.9041L43.0146 37.0147C38.3698 37.1122 8.70596 37.4667 5.19674 37.4667H3.86361V25.118V12.7691L7.56532 12.6527C9.60134 12.5888 19.4979 12.3158 29.5578 12.0462C39.6178 11.7767 47.9467 11.5461 48.0664 11.5337C48.2388 11.5159 48.2841 14.1547 48.2841 24.2076ZM45.584 14.1618C45.2966 14.2632 45.0419 14.3614 45.0179 14.3803C44.994 14.3991 44.6253 15.6129 44.1985 17.0775C43.7715 18.5424 43.3815 19.7818 43.3315 19.8318C43.2184 19.9447 43.1914 19.8705 42.4885 17.5231L41.9154 15.609L41.2674 15.5038C40.911 15.4458 40.6194 15.4462 40.6194 15.5047C40.6194 15.5632 41.0505 17.08 41.5775 18.8754C42.1044 20.6709 42.5356 22.2963 42.5356 22.4874C42.5356 22.7888 41.4078 26.7882 39.9942 31.5004L39.5631 32.9376H29.0297H18.4962V24.7626C18.4962 17.5632 18.4635 16.5551 18.2226 16.314C18.0123 16.1039 17.5672 16.0404 16.3064 16.0404H14.6639V25.0783V34.1164L15.132 34.2057C16.1005 34.3909 16.0575 34.7874 16.0575 25.6897V17.2598H16.6672H17.2769V25.7084C17.2769 32.351 17.3234 34.157 17.4946 34.1571C22.1659 34.1596 46.6946 34.162 46.847 34.1599C47.3276 34.1535 47.2044 33.6122 45.0566 26.2884L43.9438 22.4935L44.8153 19.4846C45.2947 17.8299 45.8401 15.9777 46.0274 15.3688C46.5104 13.7983 46.5224 13.8308 45.584 14.1618ZM5.25719 25.0866V34.1331L6.95562 34.1902C7.88967 34.2216 8.75213 34.2186 8.8718 34.1834C8.99165 34.1484 9.08955 33.8537 9.08955 33.5286V32.9376H7.78306H6.47658V24.7773C6.47658 17.0929 6.45794 16.6001 6.15797 16.3287C5.98273 16.1701 5.70837 16.0404 5.54828 16.0404C5.28001 16.0404 5.25719 16.7497 5.25719 25.0866ZM9.78477 16.0839C9.7839 16.108 9.76421 20.1774 9.74122 25.1272L9.69924 34.127L11.4412 34.1934C12.3993 34.2298 13.2832 34.2273 13.4056 34.1878C13.583 34.1307 13.6182 32.3354 13.5798 25.3255C13.533 16.7932 13.5215 16.5273 13.1865 16.2825C12.9968 16.1438 12.7225 16.0533 12.5768 16.0813C12.3444 16.1262 12.3122 17.157 12.3122 24.5351V32.9377L11.659 32.9376H11.0057V24.8762C11.0057 17.8618 10.9705 16.7643 10.7345 16.4276C10.5854 16.2146 10.311 16.0404 10.1248 16.0404C9.93859 16.0404 9.78564 16.0599 9.78477 16.0839ZM19.5414 24.1465V32.2526L21.4141 32.2032L23.2867 32.1537L23.3407 31.5004L23.3949 30.8472H22.0778H20.7608V24.0535V17.2598H23.0254C25.1104 17.2598 25.29 17.2343 25.29 16.9384C25.29 16.7615 25.1466 16.4872 24.9714 16.3287C24.7055 16.0879 24.2308 16.0404 22.0971 16.0404H19.5414V24.1465ZM26.6836 21.5276V27.0148H25.9868H25.29V22.6599V18.3049H24.6803H24.0706V25.2729V32.2408H24.6803H25.29V30.2375V28.2342H25.9868H26.6836V30.2485V32.2629L27.2497 32.2082L27.8158 32.1537L27.8611 24.3726C27.9014 17.4704 27.8754 16.5603 27.631 16.3159C27.4795 16.1644 27.2042 16.0404 27.0196 16.0404C26.6949 16.0404 26.6836 16.2243 26.6836 21.5276ZM29.8191 24.1406V32.2408H32.3342H34.8493L34.9036 28.9746C34.9679 25.11 34.8851 24.605 34.1641 24.4609L33.6515 24.3583V20.4876C33.6515 15.7946 33.775 16.0404 31.4167 16.0404H29.8191V24.1406ZM35.958 16.3863C35.7943 16.6483 35.7418 18.6182 35.7418 24.4925V32.2526L37.6145 32.2032L39.4871 32.1537L39.5324 24.4472C39.5861 15.3437 39.7522 16.0404 37.5258 16.0404C36.3658 16.0404 36.1434 16.0895 35.958 16.3863ZM32.4321 20.8308V24.4019H31.7353H31.0385V20.8308V17.2598H31.7353H32.4321V20.8308ZM38.1806 24.0535V30.8472H37.5709H36.9612V24.0535V17.2598H37.5709H38.1806V24.0535ZM44.5174 29.0181L45.6285 32.8505L43.3614 32.8993C42.1145 32.9261 41.0582 32.9118 41.014 32.8677C40.9474 32.801 42.8545 25.9413 43.1738 25.0987C43.2989 24.7687 43.212 24.5148 44.5174 29.0181ZM33.6515 28.2342V30.8472H32.345H31.0385V28.2342V25.6213H32.345H33.6515V28.2342Z" fill="#E3E2D9"/>
</svg>
