<svg width="118" height="44" viewBox="0 0 118 44" fill="none" xmlns="http://www.w3.org/2000/svg">
<path d="M33.1352 12.0009L31.7983 12.5585L32.5832 10.8328L25.6787 14.3024C25.6787 14.3024 26.352 15.4998 26.4398 15.6616C26.865 16.4338 26.8817 17.4821 26.8817 19.4992V30.6274C26.8817 32.6459 26.865 33.6942 26.4398 34.4665C26.352 34.6282 25.6787 35.8256 25.6787 35.8256H33.1352V12.0009Z" fill="#41456C"/>
<path d="M64.1571 10.4298L59.0815 12.5612L59.8664 10.8355C57.293 12.1514 54.4465 13.8507 52.6929 17.8681C51.9401 19.5967 51.7031 20.9656 51.7045 23.15C51.7045 26.1512 52.2231 28.0791 53.6394 30.3625C54.572 31.8652 55.4809 32.8285 57.5035 34.4316L59.2446 35.8255L59.2781 35.7963C59.5907 35.6875 59.8915 35.5474 60.1758 35.3781C65.4326 32.4507 68.9872 29.4397 68.9872 21.3211C68.99 14.9826 64.1571 10.4298 64.1571 10.4298ZM63.6831 29.4411C57.5495 29.4411 53.9084 19.6831 56.5947 14.8181C63.0391 15.3687 65.2709 25.7121 63.6831 29.4411V29.4411Z" fill="#41456C"/>
<path d="M113.167 10.4298L108.09 12.5208L108.871 10.8285C106.295 12.1207 103.452 13.7907 101.7 17.7385C100.947 19.4364 100.71 20.7802 100.712 22.9269C100.712 25.8752 101.23 27.7697 102.647 30.0126C103.578 31.4874 104.491 32.434 106.508 34.0148L108.252 35.3795L108.287 35.3516C108.599 35.2448 108.899 35.1075 109.184 34.9418C114.441 32.0715 117.996 29.1065 117.996 21.1301C118 14.9031 113.167 10.4298 113.167 10.4298ZM112.693 29.1093C106.56 29.1093 102.917 19.5284 105.603 14.7428C112.049 15.2823 114.281 25.4445 112.693 29.1065V29.1093Z" fill="#41456C"/>
<path d="M74.6287 14.8181C75.907 18.0034 77.6955 19.5214 80.7916 19.5214C83.8876 19.5214 84.9261 17.5308 85.3639 15.2363L85.4475 14.8014L84.954 14.8627C84.6528 14.9117 84.344 14.8819 84.0577 14.7763C83.1976 14.4557 81.8412 13.1495 80.5727 11.4168C80.1545 10.8592 79.7642 10.3964 79.7642 10.3964L74.6817 12.5264L75.4665 10.8006C71.6512 13.2164 70.1317 17.0806 70.5652 23.0942C71.1842 31.6938 79.7405 35.7921 79.7405 35.7921L79.7754 35.7628C79.898 35.7391 85.4447 31.2602 85.4447 31.2602C77.7039 28.6995 72.5001 21.1677 74.6287 14.8181Z" fill="#41456C"/>
<path d="M52.3235 14.8014L51.83 14.8628C51.5273 14.9117 51.217 14.8815 50.9295 14.7749C50.0708 14.4543 48.7144 13.1482 47.4445 11.4154C47.0263 10.8578 46.636 10.395 46.636 10.395L41.5772 12.5181L42.3425 10.8355C42.3076 10.8355 35.4366 14.3052 35.4366 14.3052C35.4366 14.3052 36.1099 15.5026 36.1992 15.6643C36.6174 16.4366 36.6411 17.4849 36.6411 19.502V35.8256H44.0961C44.0961 35.8256 43.4242 34.6282 43.335 34.4665C42.9098 33.6942 42.8931 32.6459 42.8931 30.6274V15.8163C44.0571 18.3254 45.3772 19.5215 47.6675 19.5215C49.8059 19.5215 51.2417 18.1498 51.9192 16.3711C52.0607 16.0154 52.1681 15.6472 52.2398 15.2712L52.3235 14.8363H52.3165L52.3235 14.8014ZM41.5646 12.5459V12.5571H41.5535L41.5646 12.5459Z" fill="#41456C"/>
<path d="M90.1578 14.8182C91.4375 18.0034 93.2246 19.5215 96.3206 19.5215C99.4167 19.5215 100.455 17.5309 100.893 15.2364L100.977 14.8014L100.483 14.8628C100.181 14.9118 99.871 14.8815 99.584 14.7749C98.7239 14.4543 97.3675 13.1482 96.099 11.4154C95.6808 10.8578 95.2919 10.395 95.2919 10.395L90.2108 12.5264L90.9956 10.8007C87.1733 13.2165 85.6608 17.0806 86.0943 23.0943C86.7132 31.6938 95.2696 35.7922 95.2696 35.7922L95.3044 35.7629C95.4271 35.7392 100.974 31.2603 100.974 31.2603C93.2329 28.6995 88.0292 21.1678 90.1578 14.8182Z" fill="#41456C"/>
<path d="M19.1465 20.1028C23.1054 20.6841 24.13 14.9172 24.13 14.9172C24.13 14.9172 23.0957 15.1402 22.4349 14.86C21.7742 14.5798 20.7077 13.6054 20.7077 13.6054L14.7303 7.8064L14.7958 9.55447L10.7045 6.66333C10.671 6.66333 0.228615 12.8777 0.00557597 18.7911C0.00488191 18.8022 0.00488191 18.8134 0.00557597 18.8245C0.00557597 18.8775 0.00557597 18.9305 0.00557597 18.982H0C0 18.9932 0 19.0057 0 19.0169C0 26.2155 4.84691 27.8199 11.4307 27.8199H13.8953C17.8375 27.8199 17.9699 31.0052 15.8762 36.9645C10.8927 35.0213 10.2765 31.4722 7.67671 31.3105C5.07692 31.1488 0 34.7648 0 34.7648L0.0501837 34.808L0 34.7997L9.39829 41.8714L8.93688 40.0327C11.5576 41.8198 13.4255 43.02 13.4255 43.02C13.4576 43.02 23.9014 36.8042 24.1244 30.8923V30.8588C24.1244 30.8059 24.1244 30.7529 24.1244 30.6999C24.1244 30.6874 24.1244 30.6762 24.1244 30.6637C24.1244 24.052 20.0024 21.862 13.3168 21.862H10.2417C6.29248 21.862 6.15726 18.6795 8.25382 12.7174C13.2429 14.6579 15.773 19.6065 19.1465 20.1028Z" fill="#41456C"/>
<path fill-rule="evenodd" clip-rule="evenodd" d="M29.7408 0C29.5136 0 26.0244 5.53693 26.023 5.65403C26.023 5.83385 29.6042 10.8257 29.7408 10.8355C29.8774 10.8453 33.4558 5.83385 33.4558 5.65403C33.4558 5.53693 29.9708 0 29.7408 0Z" fill="#41456C"/>
</svg>
